<svg xmlns="http://www.w3.org/2000/svg" version="1.1" xmlns:xlink="http://www.w3.org/1999/xlink" xmlns:svgjs="http://svgjs.dev/svgjs" width="1440" height="560" preserveAspectRatio="none" viewBox="0 0 1440 560"><g mask="url(&quot;#SvgjsMask1003&quot;)" fill="none"><rect width="1440" height="560" x="0" y="0" fill="rgba(224, 225, 221, 1)"></rect><path d="M 0,266 C 57.6,223.8 172.8,65.4 288,55 C 403.2,44.6 460.8,208 576,214 C 691.2,220 748.8,83.8 864,85 C 979.2,86.2 1036.8,223.4 1152,220 C 1267.2,216.6 1382.4,98.4 1440,68L1440 560L0 560z" fill="rgba(237, 242, 251, 1)"></path><path d="M 0,430 C 96,417.2 288,359.6 480,366 C 672,372.4 768,463 960,462 C 1152,461 1344,381.2 1440,361L1440 560L0 560z" fill="rgba(226, 234, 252, 1)"></path></g><defs><mask id="SvgjsMask1003"><rect width="1440" height="560" fill="#ffffff"></rect></mask></defs></svg>